<svg width="40" height="40" viewBox="0 0 40 40" fill="none" xmlns="http://www.w3.org/2000/svg">
<g clip-path="url(#clip0_1020_5036)">
<path d="M6.66699 1.73333C6.66699 1.37778 6.75588 1.04444 6.93366 0.733333C7.11144 0.422222 7.35588 0.222222 7.66699 0.133333C7.9781 0.0444444 8.31144 0.0222222 8.66699 0.0666667C9.02255 0.111111 9.28921 0.266667 9.46699 0.533333L20.0003 10.9333L30.5337 0.533333C30.8003 0.177778 31.1781 0 31.667 0C32.1559 0 32.5559 0.155556 32.867 0.466667C33.1781 0.777778 33.3337 1.17778 33.3337 1.66667C33.3337 2.15556 33.1559 2.53333 32.8003 2.8L21.2003 14.5333C20.8448 14.8 20.4448 14.9333 20.0003 14.9333C19.5559 14.9333 19.1559 14.8 18.8003 14.5333L7.20033 2.8C6.84477 2.53333 6.66699 2.13333 6.66699 1.6V1.73333Z" fill="#4B0082"/>
</g>
<defs>
<clipPath id="clip0_1020_5036">
<rect width="40" height="40" fill="white" transform="matrix(0 1 1 0 0 0)"/>
</clipPath>
</defs>
</svg>
