<svg width="24" height="24" viewBox="0 0 24 24" fill="none" xmlns="http://www.w3.org/2000/svg">
<path fill-rule="evenodd" clip-rule="evenodd" d="M12 4C10.3431 4 9 5.34315 9 7V11C9 12.6569 10.3431 14 12 14C13.6569 14 15 12.6569 15 11V7C15 5.34315 13.6569 4 12 4ZM7 9C7 8.44772 6.55228 8 6 8C5.44772 8 5 8.44772 5 9V11C5 14.866 8.13401 18 12 18C15.866 18 19 14.866 19 11V9C19 8.44772 18.5523 8 18 8C17.4477 8 17 8.44772 17 9V11C17 13.7614 14.7614 16 12 16C9.23858 16 7 13.7614 7 11V9Z" fill="#4B0082"/>
</svg>
