<svg width="21" height="20" viewBox="0 0 21 20" fill="none" xmlns="http://www.w3.org/2000/svg">
<g clip-path="url(#clip0_101_2771)">
<path d="M17.1262 2.93333C16.1929 2 15.1151 1.27778 13.8929 0.766666C12.6707 0.255554 11.3929 -1.90735e-06 10.0596 -1.90735e-06C8.72624 -1.90735e-06 7.44846 0.255554 6.22624 0.766666C5.00401 1.27778 3.92624 2 2.9929 2.93333C2.05957 3.86666 1.33735 4.94444 0.826237 6.16667C0.315126 7.38889 0.0595703 8.66667 0.0595703 10C0.0595703 11.3333 0.315126 12.6111 0.826237 13.8333C1.33735 15.0556 2.05957 16.1333 2.9929 17.0667C3.92624 18 5.00401 18.7222 6.22624 19.2333C7.44846 19.7444 8.72624 20 10.0596 20C11.3929 20 12.6707 19.7444 13.8929 19.2333C15.1151 18.7222 16.1929 18 17.1262 17.0667C18.0596 16.1333 18.7818 15.0556 19.2929 13.8333C19.804 12.6111 20.0596 11.3333 20.0596 10C20.0596 8.66667 19.804 7.38889 19.2929 6.16667C18.7818 4.94444 18.0596 3.86666 17.1262 2.93333ZM5.05957 17.2667C5.28179 16.0667 5.85957 15.0667 6.7929 14.2667C7.72624 13.4667 8.81513 13.0667 10.0596 13.0667C11.304 13.0667 12.3929 13.4667 13.3262 14.2667C14.2596 15.0667 14.8373 16.0667 15.0596 17.2667C13.5485 18.2889 11.8818 18.8 10.0596 18.8C8.23735 18.8 6.57068 18.2889 5.05957 17.2667ZM6.85957 8.73333C6.85957 7.84444 7.17068 7.08889 7.7929 6.46667C8.41513 5.84444 9.17068 5.53333 10.0596 5.53333C10.9485 5.53333 11.704 5.84444 12.3262 6.46667C12.9485 7.08889 13.2596 7.84444 13.2596 8.73333C13.2596 9.62222 12.9485 10.3778 12.3262 11C11.704 11.6222 10.9485 11.9333 10.0596 11.9333C9.17068 11.9333 8.41513 11.6222 7.7929 11C7.17068 10.3778 6.85957 9.62222 6.85957 8.73333ZM16.0596 16.4667C15.7485 15.3111 15.1485 14.3333 14.2596 13.5333C13.7262 13.0444 13.1262 12.6667 12.4596 12.4C13.0373 12 13.504 11.4778 13.8596 10.8333C14.2151 10.1889 14.3929 9.47778 14.3929 8.7C14.3929 7.92222 14.204 7.2 13.8262 6.53333C13.4485 5.86667 12.9262 5.34444 12.2596 4.96667C11.5929 4.58889 10.8596 4.4 10.0596 4.4C9.25957 4.4 8.52624 4.58889 7.85957 4.96667C7.1929 5.34444 6.67068 5.86667 6.2929 6.53333C5.91513 7.2 5.72624 7.92222 5.72624 8.7C5.72624 9.47778 5.90402 10.1889 6.25957 10.8333C6.61513 11.4778 7.08179 12 7.65957 12.4C6.9929 12.6667 6.3929 13.0444 5.85957 13.5333C4.97068 14.3333 4.37068 15.3111 4.05957 16.4667C3.17068 15.6667 2.48179 14.7 1.9929 13.5667C1.50401 12.4333 1.25957 11.2444 1.25957 10C1.25957 8.4 1.64846 6.92222 2.42624 5.56667C3.20402 4.21111 4.27068 3.14444 5.62624 2.36666C6.98179 1.58889 8.45957 1.2 10.0596 1.2C11.6596 1.2 13.1373 1.58889 14.4929 2.36666C15.8485 3.14444 16.9151 4.21111 17.6929 5.56667C18.4707 6.92222 18.8596 8.4 18.8596 10C18.8596 11.2444 18.6151 12.4333 18.1262 13.5667C17.6373 14.7 16.9485 15.6667 16.0596 16.4667Z" fill="#4B0082" fill-opacity="0.8"/>
</g>
<defs>
<clipPath id="clip0_101_2771">
<rect width="20" height="20" fill="white" transform="matrix(1 0 0 -1 0.0595703 20)"/>
</clipPath>
</defs>
</svg>
