<svg width="54" height="36" viewBox="0 0 54 36" fill="none" xmlns="http://www.w3.org/2000/svg">
<path fill-rule="evenodd" clip-rule="evenodd" d="M2.75 0.5H33.75C34.8546 0.5 35.75 1.39543 35.75 2.5V18V33.5C35.75 34.6046 34.8546 35.5 33.75 35.5H18.25H2.75C1.64543 35.5 0.75 34.6046 0.75 33.5V2.5C0.75 1.39543 1.64543 0.5 2.75 0.5ZM42.3408 11.9773L52.0075 9.56063C52.6386 9.40285 53.25 9.88021 53.25 10.5308V25.4692C53.25 26.1198 52.6386 26.5972 52.0075 26.4394L42.3408 24.0227C41.8956 23.9114 41.5833 23.5114 41.5833 23.0526V12.9474C41.5833 12.4886 41.8956 12.0886 42.3408 11.9773Z" fill="#020617"/>
</svg>
